<?xml version="1.0" encoding="utf-8"?>
<!-- Generator: Adobe Illustrator 25.2.1, SVG Export Plug-In . SVG Version: 6.00 Build 0)  -->
<svg version="1.1" id="Layer_1" xmlns="http://www.w3.org/2000/svg" xmlns:xlink="http://www.w3.org/1999/xlink" x="0px" y="0px"
	 viewBox="0 0 445 346" style="enable-background:new 0 0 445 346;" xml:space="preserve">
<style type="text/css">
	.st0{fill:#3E3E40;}
</style>
<path id="_5_" class="st0" d="M123.6,257.4c2,8.7,1.7,17-0.8,24.9c-2.6,7.9-7.3,14.7-14.3,20.3c-7,5.7-15.8,9.8-26.5,12.3
	c-5.9,1.4-12.3,2.3-18.9,2.8c-6.7,0.5-12.3,0.4-16.8-0.1l-6.8-29.6c10.1,2.7,20.2,2.8,30.2,0.5c6.6-1.5,11.3-3.9,14.2-7
	c2.8-3.2,3.8-6.9,2.8-11.2c-2.2-9.4-11.1-12.3-26.8-8.6c-7.9,1.8-15,4.2-21.4,7.3l-12.9-77.9l72.9-16.7l6.8,29.6L62,213.6l2.9,18.2
	c3.4-1.2,6.6-2.1,9.7-2.8c12.6-2.9,23.2-1.8,31.9,3.3C115.2,237.4,120.9,245.8,123.6,257.4z M213.2,239.4l7.7,33.1l-22.2,5.2
	l-7.7-33.2l-33.2,7.7l-5.1-22l33.2-7.7l-7.6-33l22.2-5.1l7.6,33l33.4-7.7l5.1,21.9L213.2,239.4z"/>
<path id="years" class="st0" d="M154.6,164.7c-2.3,0.5-4.7,0.9-7.4,1.1c-2.7,0.2-5.1,0.2-7.3-0.1l-4.1-17.9c1.1,0.5,2.7,0.8,4.7,1
	c2,0.2,3.8,0.1,5.5-0.3c4.5-1,7-3.5,7.7-7.3l0.8-4.9l-37.3-51.4l26.6-6.1l13.3,26c2.5,4.8,4.1,8.1,4.6,9.9l0.2-0.1
	c-0.1-0.8-0.1-1.8-0.2-2.8c0-1.1,0.2-13.4,0.6-37.2l23.3-5.4l-7.7,63.5c-1.1,9.7-3.6,17.1-7.4,22.1
	C166.8,159.8,161.5,163.1,154.6,164.7z M219,98.7c1,2.4,2.8,3.9,5.6,4.8c2.8,0.8,6.1,0.8,10.1-0.1c5.6-1.3,10.6-3.6,15.1-6.8l3.5,15
	c-5.3,3.6-12,6.4-20.3,8.3c-10,2.3-18.4,1.6-25.2-2.2c-6.8-3.8-11.2-10.2-13.2-19.1c-1.4-6.1-1.4-11.8-0.1-17.1
	c1.4-5.2,4.2-9.7,8.4-13.5c4.2-3.8,9.2-6.3,15-7.6c6-1.4,11.3-1.4,16.1-0.1c4.8,1.3,8.7,3.8,11.9,7.5c3.1,3.7,5.4,8.3,6.6,13.8
	l2.1,8.9L219,98.7z M230.5,83c-1.5-6.6-4.7-9.3-9.4-8.2c-2,0.5-3.4,1.7-4.4,3.8c-0.9,2.1-1.2,4.7-0.7,7.7L230.5,83z M299.6,103
	l-2-8.7l-0.2,0.1c-2.3,7.6-7.3,12.3-15.1,14.1c-5.4,1.2-10,0.6-13.8-1.8c-3.8-2.5-6.3-6.4-7.6-11.7c-2.6-11.2,2.8-19.3,16.3-24.2
	l13.8-5.1c-0.4-1.8-1.6-3.2-3.6-4c-2-0.8-4.4-0.9-7.2-0.3c-6.4,1.5-12.8,4.8-19.1,10.1l-3.6-15.4c2.8-2,6.4-4,10.9-6
	c4.5-1.9,8.4-3.3,11.7-4c9.7-2.2,17.3-1.8,22.6,1.3s9.1,9.5,11.4,19.2l7.2,31.4L299.6,103z M281.1,87c0.4,1.6,1.2,2.7,2.4,3.5
	c1.2,0.8,2.7,0.9,4.6,0.5c2.5-0.6,4.3-2,5.4-4.2c1.1-2.2,1.3-4.7,0.7-7.6l-0.5-2.2l-7.8,3C281.9,81.5,280.3,83.9,281.1,87L281.1,87z
	 M366.6,49.1c-1-0.2-2.3-0.3-3.9-0.3c-1.6,0-2.9,0.1-3.9,0.4c-7.8,1.8-10.7,7.2-8.7,16.2l5.7,24.6l-23.8,5.5L319,38.7l23.8-5.5
	l2.3,10l0.2-0.1c0.6-3.9,2.1-7.1,4.3-9.6c2.3-2.5,5.2-4.1,8.7-4.9c1.3-0.3,2.5-0.3,3.6-0.1L366.6,49.1z M423.9,54.5
	c1.5,6.4,0.2,12-3.9,16.6c-4.1,4.7-10.5,8-19.3,10c-2.6,0.6-5.8,1.1-9.7,1.4c-3.9,0.4-7.1,0.4-9.7,0.2l-3.9-16.6
	c7.7,1.5,14,1.7,18.7,0.6c4.6-1.1,6.7-2.8,6.1-5.2c-0.2-1-1-1.7-2.2-2.1c-1.2-0.4-4.3-0.8-9.2-1.3c-5.4-0.4-9.6-1.7-12.5-3.8
	c-2.9-2.1-4.8-5.2-5.8-9.5c-1.4-5.9-0.1-11.1,3.8-15.6c3.9-4.5,10.1-7.7,18.6-9.7c5-1.1,10.4-1.6,16.3-1.5l3.7,15.9
	c-2.6-0.5-5.3-0.7-8.3-0.7c-2.9,0-5.4,0.2-7.2,0.6c-1.6,0.4-2.7,0.9-3.6,1.6c-0.8,0.7-1.1,1.6-0.9,2.5c0.2,1.1,0.9,1.8,2.1,2.3
	c1.2,0.4,3.3,0.8,6.6,1c6.2,0.4,10.9,1.6,14,3.7C420.9,47.2,422.9,50.4,423.9,54.5L423.9,54.5z"/>
<g>
</g>
<g>
</g>
<g>
</g>
<g>
</g>
<g>
</g>
<g>
</g>
<g>
</g>
<g>
</g>
<g>
</g>
<g>
</g>
<g>
</g>
<g>
</g>
<g>
</g>
<g>
</g>
<g>
</g>
</svg>
