<?xml version="1.0" encoding="utf-8"?>
<!-- Generator: Adobe Illustrator 25.2.1, SVG Export Plug-In . SVG Version: 6.00 Build 0)  -->
<svg version="1.1" id="Layer_1" xmlns="http://www.w3.org/2000/svg" xmlns:xlink="http://www.w3.org/1999/xlink" x="0px" y="0px"
	 viewBox="0 0 1000 1000" style="enable-background:new 0 0 1000 1000;" xml:space="preserve">
<style type="text/css">
	.st0{fill-rule:evenodd;clip-rule:evenodd;fill:#F0F0F3;}
</style>
<path id="Path_1" class="st0" d="M499.9,34.7c-263.5,0-477.1,213.6-477.1,477.2c0,205.4,131.5,387.8,326.4,452.7
	c23.9,4.4,32.6-10.3,32.6-23c0-11.3-0.4-41.3-0.6-81.2c-132.7,28.8-160.7-63.9-160.7-63.9c-21.7-55.1-53-69.8-53-69.8
	c-43.3-29.6,3.3-29,3.3-29c30.6,4.2,57.6,22.4,73.1,49.1c42.6,72.9,111.7,51.9,138.9,39.6c2.2-24.2,12.9-46.8,30.3-63.8
	c-105.9-12-217.3-53-217.3-235.8c-0.7-47.4,16.9-93.2,49.1-128c-14.6-41.2-12.9-86.3,4.7-126.3c0,0,40.1-12.8,131.2,48.9
	c78.2-21.4,160.7-21.4,238.9,0c91.1-61.7,131.1-48.9,131.1-48.9c17.6,40,19.3,85.1,4.8,126.3c32.2,34.8,49.8,80.7,49,128.1
	c0,183.3-111.6,223.6-217.9,235.4c23,23.4,34.8,55.6,32.4,88.4c0,63.8-0.6,115.3-0.6,130.9c0,12.7,8.6,27.6,32.8,22.9
	c250-83.4,385-353.7,301.5-603.7C887.5,166,705.2,34.7,499.9,34.7L499.9,34.7z"/>
<g>
</g>
<g>
</g>
<g>
</g>
<g>
</g>
<g>
</g>
<g>
</g>
</svg>
