<?xml version="1.0" encoding="utf-8"?>
<!-- Generator: Adobe Illustrator 25.2.1, SVG Export Plug-In . SVG Version: 6.00 Build 0)  -->
<svg version="1.1" id="Layer_1" xmlns="http://www.w3.org/2000/svg" xmlns:xlink="http://www.w3.org/1999/xlink" x="0px" y="0px"
	 viewBox="0 0 1000 1000" style="enable-background:new 0 0 1000 1000;" xml:space="preserve">
<style type="text/css">
	.st0{fill:#F0F0F3;}
</style>
<path id="linkedin-3" class="st0" d="M809.9,3.3H190.1C86.9,3.3,3.3,86.9,3.3,190.1c0,0,0,0,0,0v619.9
	c0,103.2,83.6,186.8,186.8,186.8h0h619.9c103.2,0,186.8-83.6,186.8-186.8c0,0,0,0,0,0V190.1C996.7,86.9,913.1,3.3,809.9,3.3
	C809.9,3.3,809.9,3.3,809.9,3.3z M334.4,789.8H210.2V334.4h124.2V789.8z M272.4,281.9c-40.3,0.3-73.3-32.1-73.6-72.4
	c-0.3-40.3,32.1-73.3,72.4-73.6s73.3,32.1,73.6,72.4c0,0.2,0,0.4,0,0.6C344.9,249.1,312.5,281.8,272.4,281.9L272.4,281.9z
	 M831.2,789.8H707V557.8c0-139.5-165.6-128.9-165.6,0v231.9H417.3V334.4h124.2v73.1C599.3,300.4,831.2,292.6,831.2,510L831.2,789.8z
	"/>
<g>
</g>
<g>
</g>
<g>
</g>
<g>
</g>
<g>
</g>
<g>
</g>
</svg>
