<?xml version="1.0" encoding="utf-8"?>
<!-- Generator: Adobe Illustrator 25.2.1, SVG Export Plug-In . SVG Version: 6.00 Build 0)  -->
<svg version="1.1" id="Layer_1" xmlns="http://www.w3.org/2000/svg" xmlns:xlink="http://www.w3.org/1999/xlink" x="0px" y="0px"
	 viewBox="0 0 1000 1000" style="enable-background:new 0 0 1000 1000;" xml:space="preserve">
<style type="text/css">
	.st0{fill:#121524;}
	.st1{fill:#F1DBEB;}
</style>
<path class="st0" d="M925,1000H75c-41.4,0-75-33.6-75-75V75C0,33.6,33.6,0,75,0h850c41.4,0,75,33.6,75,75v850
	C1000,966.4,966.4,1000,925,1000z"/>
<g>
	<g>
		<path class="st1" d="M319.1,523.8h-1.6c-4.3,0-6.4-2.2-6.4-6.6V461c0-3.2,1.1-5.9,3.2-8l5.1-5.1c2.1-2.1,4.8-3.2,7.8-3.2h10.1
			c1.6,0,3,0.3,4.2,0.8c1.2,0.5,2.4,1.4,3.6,2.6c1.4,1.5,2.8,2.2,4.2,2.2c1.2,0,2.3-0.6,3.5-1.9l0.3-0.3c1.2-1.2,2.4-2,3.6-2.6
			c1.2-0.5,2.6-0.8,4.2-0.8h9.5c1.6,0,3,0.3,4.2,0.8c1.2,0.5,2.4,1.4,3.6,2.6l5.1,5.1c2.1,2.1,3.2,4.8,3.2,7.8v56.2
			c0,4.4-2.1,6.6-6.4,6.6h-1.6c-4.3,0-6.4-2.2-6.4-6.6v-51.6c0-4.3-2.1-6.4-6.4-6.4h-3c-4.3,0-6.4,2.1-6.4,6.4v51.6
			c0,4.4-2.1,6.6-6.4,6.6h-1.6c-4.3,0-6.4-2.2-6.4-6.6v-51.6c0-4.3-2.1-6.4-6.4-6.4h-3.7c-4.3,0-6.4,2.1-6.4,6.4v51.6
			C325.5,521.6,323.4,523.8,319.1,523.8z"/>
		<path class="st1" d="M412.8,520.4l-5.3-5.3c-2.1-2.1-3.2-4.8-3.2-7.8v-18.6c0-1.6,0.3-3,0.8-4.2c0.5-1.2,1.4-2.4,2.6-3.6l5.1-5.1
			c2.1-2,4.8-3,7.8-3h15.2c4.3,0,6.4-2.2,6.4-6.6v-0.5c0-4.3-2.1-6.4-6.4-6.4h-24.7c-4.3,0-6.4-2.1-6.4-6.4v-1.8
			c0-4.3,2.1-6.4,6.4-6.4h29.3c3.1,0,5.7,1.1,7.8,3.2l5.3,5.3c2.1,2.1,3.2,4.8,3.2,7.8v56.2c0,4.4-2.1,6.6-6.4,6.6h-29.8
			C417.6,523.8,415,522.7,412.8,520.4z M435.9,485.8h-10.6c-4.3,0-6.4,2.1-6.4,6.2v12c0,4.4,2.1,6.6,6.4,6.6h10.6
			c4.3,0,6.4-2.2,6.4-6.6v-12C442.3,487.9,440.2,485.8,435.9,485.8z"/>
		<path class="st1" d="M483.5,421.1c1.7,0,3.4,0.8,5,2.4s2.4,3.3,2.4,5c0,1.7-0.8,3.4-2.4,5c-1.6,1.6-3.3,2.4-5,2.4
			c-1.7,0-3.4-0.8-5-2.4c-1.6-1.6-2.4-3.3-2.4-5c0-1.7,0.8-3.4,2.4-5S481.8,421.1,483.5,421.1z M482.7,444.7h1.6
			c4.3,0,6.4,2.1,6.4,6.4v66.3c0,4.3-2.1,6.4-6.4,6.4h-1.6c-4.3,0-6.4-2.1-6.4-6.4v-66.3C476.3,446.8,478.4,444.7,482.7,444.7z"/>
		<path class="st1" d="M514.9,408.5h1.6c4.3,0,6.4,2.2,6.4,6.6v102.4c0,4.3-2.1,6.4-6.4,6.4h-1.6c-4.3,0-6.4-2.1-6.4-6.4V415
			C508.5,410.7,510.6,408.5,514.9,408.5z"/>
		<path class="st1" d="M538.9,517.6v-102c0-4.5,2.1-6.7,6.4-6.7h1.8c4.3,0,6.4,2.2,6.4,6.7v22.7c0,4.3,2.1,6.4,6.4,6.4h14.7
			c3.1,0,5.7,1.1,7.8,3.2l5.3,5.3c2.1,2.1,3.2,4.8,3.2,7.8v56.5c0,4.3-2.1,6.4-6.4,6.4h-1.8c-4.3,0-6.4-2.1-6.4-6.4v-51.9
			c0-4.3-2.1-6.4-6.4-6.4h-10.1c-4.3,0-6.4,2.1-6.4,6.4v51.9c0,4.3-2.1,6.4-6.4,6.4h-1.8C541,524,538.9,521.8,538.9,517.6z"/>
		<path class="st1" d="M644.6,477.2v-26.1c0-4.3,2.1-6.4,6.4-6.4h1.8c4.3,0,6.4,2.1,6.4,6.4v70.8c0,3.1-1.1,5.7-3.2,7.8l-5.3,5.3
			c-2.1,2-4.8,3-7.8,3h-28c-4.3,0-6.4-2.1-6.4-6.2v-1.8c0-4.4,2.1-6.6,6.4-6.6h23.4c4.3,0,6.4-2.1,6.4-6.2v-12.7
			c0-4.4-2.1-6.6-6.4-6.6h-14.9c-3.1,0-5.7-1-7.8-3l-5.3-5.3c-2.1-2.1-3.2-4.8-3.2-7.8v-30.8c0-4.3,2.1-6.4,6.4-6.4h1.8
			c4.3,0,6.4,2.1,6.4,6.4v26.1c0,4.2,2.1,6.2,6.4,6.2h10.3C642.5,483.4,644.6,481.4,644.6,477.2z"/>
		<path class="st1" d="M691.6,444.7h14.7c4.3,0,6.4-2.1,6.4-6.4v-23.1c0-4.3,2.1-6.4,6.4-6.4h1.8c4.3,0,6.4,2.1,6.4,6.4v102.2
			c0,4.3-2.1,6.4-6.4,6.4h-29.3c-3.1,0-5.7-1.1-7.8-3.2l-5.3-5.3c-2.1-2.1-3.2-4.8-3.2-7.8v-46.6c0-3.1,1.1-5.7,3.2-7.8l5.1-5.1
			C685.7,445.7,688.4,444.7,691.6,444.7z M696.2,509.2h10.1c4.3,0,6.4-2.1,6.4-6.4v-37.2c0-4.3-2.1-6.4-6.4-6.4h-10.1
			c-4.3,0-6.4,2.1-6.4,6.4v37.2C689.8,507.1,691.9,509.2,696.2,509.2z"/>
		<path class="st1" d="M753.1,523.8h-1.8c-4.3,0-6.4-2.2-6.4-6.6V461c0-3.1,1.1-5.7,3.2-7.8l5.3-5.3c2.1-2.1,4.8-3.2,7.8-3.2h2.9
			c4.3,0,6.4,2.1,6.4,6.4v1.8c0,4.3-1.8,6.4-5.4,6.4c-1.8,0-3.2,0.6-4.2,1.7c-1,1.1-1.4,2.7-1.4,4.7v51.6
			C759.5,521.6,757.3,523.8,753.1,523.8z"/>
		<path class="st1" d="M788.6,520.4l-5.3-5.3c-2.1-2.1-3.2-4.8-3.2-7.8v-18.6c0-1.6,0.3-3,0.8-4.2c0.5-1.2,1.4-2.4,2.6-3.6l5.1-5.1
			c2.1-2,4.8-3,7.8-3h15.2c4.3,0,6.4-2.2,6.4-6.6v-0.5c0-4.3-2.1-6.4-6.4-6.4H787c-4.3,0-6.4-2.1-6.4-6.4v-1.8
			c0-4.3,2.1-6.4,6.4-6.4h29.3c3.1,0,5.7,1.1,7.8,3.2l5.3,5.3c2.1,2.1,3.2,4.8,3.2,7.8v56.2c0,4.4-2.1,6.6-6.4,6.6h-29.8
			C793.4,523.8,790.8,522.7,788.6,520.4z M811.7,485.8h-10.6c-4.3,0-6.4,2.1-6.4,6.2v12c0,4.4,2.1,6.6,6.4,6.6h10.6
			c4.3,0,6.4-2.2,6.4-6.6v-12C818.1,487.9,816,485.8,811.7,485.8z"/>
	</g>
	<g>
		<path class="st1" d="M278,501.2l-3.5-7.2v-39.6c0-5.1-4.5-9.2-10.1-9.2h-26c-5.6,0-10.1,4.1-10.1,9.2v13.3H239
			c6.4,0,11.6,5.2,11.6,11.6v45.3h13.8c5.6,0,10.1-4.1,10.1-9.2V504l2.8-1.1C278,502.6,278.3,501.8,278,501.2z M269.6,479.3
			l-0.8,2.6c-0.4,1.1-1.5,1.7-2.6,1.3l-8.7-2.9c-1.1-0.4-1.7-1.5-1.3-2.6l0.8-2.6c0.4-1.1,1.5-1.7,2.6-1.3l8.7,2.9
			C269.4,477,270,478.2,269.6,479.3z M197.5,445.2h-26c-5.6,0-10.1,4.1-10.1,9.2V494l-3.5,7.2c-0.3,0.6,0,1.4,0.7,1.7l2.8,1.1v11.3
			c0,5.1,4.5,9.2,10.1,9.2h18.2v-45.3c0-6.4,5.2-11.6,11.6-11.6h6.3v-13.3C207.6,449.3,203,445.2,197.5,445.2z M178.4,480.3
			l-8.7,2.9c-1.1,0.4-2.3-0.2-2.6-1.3l-0.8-2.6c-0.4-1.1,0.2-2.3,1.3-2.6l8.7-2.9c1.1-0.4,2.3,0.2,2.6,1.3l0.8,2.6
			C180.1,478.7,179.5,479.9,178.4,480.3z M278,501.2l-3.5-7.2v-39.6c0-5.1-4.5-9.2-10.1-9.2h-26c-5.6,0-10.1,4.1-10.1,9.2v13.3H239
			c6.4,0,11.6,5.2,11.6,11.6v45.3h13.8c5.6,0,10.1-4.1,10.1-9.2V504l2.8-1.1C278,502.6,278.3,501.8,278,501.2z M269.6,479.3
			l-0.8,2.6c-0.4,1.1-1.5,1.7-2.6,1.3l-8.7-2.9c-1.1-0.4-1.7-1.5-1.3-2.6l0.8-2.6c0.4-1.1,1.5-1.7,2.6-1.3l8.7,2.9
			C269.4,477,270,478.2,269.6,479.3z M197.5,445.2h-26c-5.6,0-10.1,4.1-10.1,9.2V494l-3.5,7.2c-0.3,0.6,0,1.4,0.7,1.7l2.8,1.1v11.3
			c0,5.1,4.5,9.2,10.1,9.2h18.2v-45.3c0-6.4,5.2-11.6,11.6-11.6h6.3v-13.3C207.6,449.3,203,445.2,197.5,445.2z M178.4,480.3
			l-8.7,2.9c-1.1,0.4-2.3-0.2-2.6-1.3l-0.8-2.6c-0.4-1.1,0.2-2.3,1.3-2.6l8.7-2.9c1.1-0.4,2.3,0.2,2.6,1.3l0.8,2.6
			C180.1,478.7,179.5,479.9,178.4,480.3z M197.5,445.2h-26c-5.6,0-10.1,4.1-10.1,9.2V494l-3.5,7.2c-0.3,0.6,0,1.4,0.7,1.7l2.8,1.1
			v11.3c0,5.1,4.5,9.2,10.1,9.2h18.2v-45.3c0-6.4,5.2-11.6,11.6-11.6h6.3v-13.3C207.6,449.3,203,445.2,197.5,445.2z M178.4,480.3
			l-8.7,2.9c-1.1,0.4-2.3-0.2-2.6-1.3l-0.8-2.6c-0.4-1.1,0.2-2.3,1.3-2.6l8.7-2.9c1.1-0.4,2.3,0.2,2.6,1.3l0.8,2.6
			C180.1,478.7,179.5,479.9,178.4,480.3z M278,501.2l-3.5-7.2v-39.6c0-5.1-4.5-9.2-10.1-9.2h-26c-5.6,0-10.1,4.1-10.1,9.2v13.3H239
			c6.4,0,11.6,5.2,11.6,11.6v45.3h13.8c5.6,0,10.1-4.1,10.1-9.2V504l2.8-1.1C278,502.6,278.3,501.8,278,501.2z M269.6,479.3
			l-0.8,2.6c-0.4,1.1-1.5,1.7-2.6,1.3l-8.7-2.9c-1.1-0.4-1.7-1.5-1.3-2.6l0.8-2.6c0.4-1.1,1.5-1.7,2.6-1.3l8.7,2.9
			C269.4,477,270,478.2,269.6,479.3z M197.5,445.2h-26c-5.6,0-10.1,4.1-10.1,9.2V494l-3.5,7.2c-0.3,0.6,0,1.4,0.7,1.7l2.8,1.1v11.3
			c0,5.1,4.5,9.2,10.1,9.2h18.2v-45.3c0-6.4,5.2-11.6,11.6-11.6h6.3v-13.3C207.6,449.3,203,445.2,197.5,445.2z M178.4,480.3
			l-8.7,2.9c-1.1,0.4-2.3-0.2-2.6-1.3l-0.8-2.6c-0.4-1.1,0.2-2.3,1.3-2.6l8.7-2.9c1.1-0.4,2.3,0.2,2.6,1.3l0.8,2.6
			C180.1,478.7,179.5,479.9,178.4,480.3z M197.5,445.2h-26c-5.6,0-10.1,4.1-10.1,9.2V494l-3.5,7.2c-0.3,0.6,0,1.4,0.7,1.7l2.8,1.1
			v11.3c0,5.1,4.5,9.2,10.1,9.2h18.2v-45.3c0-6.4,5.2-11.6,11.6-11.6h6.3v-13.3C207.6,449.3,203,445.2,197.5,445.2z M178.4,480.3
			l-8.7,2.9c-1.1,0.4-2.3-0.2-2.6-1.3l-0.8-2.6c-0.4-1.1,0.2-2.3,1.3-2.6l8.7-2.9c1.1-0.4,2.3,0.2,2.6,1.3l0.8,2.6
			C180.1,478.7,179.5,479.9,178.4,480.3z M278,501.2l-3.5-7.2v-39.6c0-5.1-4.5-9.2-10.1-9.2h-26c-5.6,0-10.1,4.1-10.1,9.2v13.3H239
			c6.4,0,11.6,5.2,11.6,11.6v45.3h13.8c5.6,0,10.1-4.1,10.1-9.2V504l2.8-1.1C278,502.6,278.3,501.8,278,501.2z M269.6,479.3
			l-0.8,2.6c-0.4,1.1-1.5,1.7-2.6,1.3l-8.7-2.9c-1.1-0.4-1.7-1.5-1.3-2.6l0.8-2.6c0.4-1.1,1.5-1.7,2.6-1.3l8.7,2.9
			C269.4,477,270,478.2,269.6,479.3z M197.5,445.2h-26c-5.6,0-10.1,4.1-10.1,9.2V494l-3.5,7.2c-0.3,0.6,0,1.4,0.7,1.7l2.8,1.1v11.3
			c0,5.1,4.5,9.2,10.1,9.2h18.2v-45.3c0-6.4,5.2-11.6,11.6-11.6h6.3v-13.3C207.6,449.3,203,445.2,197.5,445.2z M178.4,480.3
			l-8.7,2.9c-1.1,0.4-2.3-0.2-2.6-1.3l-0.8-2.6c-0.4-1.1,0.2-2.3,1.3-2.6l8.7-2.9c1.1-0.4,2.3,0.2,2.6,1.3l0.8,2.6
			C180.1,478.7,179.5,479.9,178.4,480.3z M197.5,445.2h-26c-5.6,0-10.1,4.1-10.1,9.2V494l-3.5,7.2c-0.3,0.6,0,1.4,0.7,1.7l2.8,1.1
			v11.3c0,5.1,4.5,9.2,10.1,9.2h18.2v-45.3c0-6.4,5.2-11.6,11.6-11.6h6.3v-13.3C207.6,449.3,203,445.2,197.5,445.2z M178.4,480.3
			l-8.7,2.9c-1.1,0.4-2.3-0.2-2.6-1.3l-0.8-2.6c-0.4-1.1,0.2-2.3,1.3-2.6l8.7-2.9c1.1-0.4,2.3,0.2,2.6,1.3l0.8,2.6
			C180.1,478.7,179.5,479.9,178.4,480.3z M278,501.2l-3.5-7.2v-39.6c0-5.1-4.5-9.2-10.1-9.2h-26c-5.6,0-10.1,4.1-10.1,9.2v13.3H239
			c6.4,0,11.6,5.2,11.6,11.6v45.3h13.8c5.6,0,10.1-4.1,10.1-9.2V504l2.8-1.1C278,502.6,278.3,501.8,278,501.2z M269.6,479.3
			l-0.8,2.6c-0.4,1.1-1.5,1.7-2.6,1.3l-8.7-2.9c-1.1-0.4-1.7-1.5-1.3-2.6l0.8-2.6c0.4-1.1,1.5-1.7,2.6-1.3l8.7,2.9
			C269.4,477,270,478.2,269.6,479.3z M278,501.2l-3.5-7.2v-39.6c0-5.1-4.5-9.2-10.1-9.2h-26c-5.6,0-10.1,4.1-10.1,9.2v13.3H239
			c6.4,0,11.6,5.2,11.6,11.6v45.3h13.8c5.6,0,10.1-4.1,10.1-9.2V504l2.8-1.1C278,502.6,278.3,501.8,278,501.2z M269.6,479.3
			l-0.8,2.6c-0.4,1.1-1.5,1.7-2.6,1.3l-8.7-2.9c-1.1-0.4-1.7-1.5-1.3-2.6l0.8-2.6c0.4-1.1,1.5-1.7,2.6-1.3l8.7,2.9
			C269.4,477,270,478.2,269.6,479.3z M197.5,445.2h-26c-5.6,0-10.1,4.1-10.1,9.2V494l-3.5,7.2c-0.3,0.6,0,1.4,0.7,1.7l2.8,1.1v11.3
			c0,5.1,4.5,9.2,10.1,9.2h18.2v-45.3c0-6.4,5.2-11.6,11.6-11.6h6.3v-13.3C207.6,449.3,203,445.2,197.5,445.2z M178.4,480.3
			l-8.7,2.9c-1.1,0.4-2.3-0.2-2.6-1.3l-0.8-2.6c-0.4-1.1,0.2-2.3,1.3-2.6l8.7-2.9c1.1-0.4,2.3,0.2,2.6,1.3l0.8,2.6
			C180.1,478.7,179.5,479.9,178.4,480.3z M197.5,445.2h-26c-5.6,0-10.1,4.1-10.1,9.2V494l-3.5,7.2c-0.3,0.6,0,1.4,0.7,1.7l2.8,1.1
			v11.3c0,5.1,4.5,9.2,10.1,9.2h18.2v-45.3c0-6.4,5.2-11.6,11.6-11.6h6.3v-13.3C207.6,449.3,203,445.2,197.5,445.2z M178.4,480.3
			l-8.7,2.9c-1.1,0.4-2.3-0.2-2.6-1.3l-0.8-2.6c-0.4-1.1,0.2-2.3,1.3-2.6l8.7-2.9c1.1-0.4,2.3,0.2,2.6,1.3l0.8,2.6
			C180.1,478.7,179.5,479.9,178.4,480.3z M278,501.2l-3.5-7.2v-39.6c0-5.1-4.5-9.2-10.1-9.2h-26c-5.6,0-10.1,4.1-10.1,9.2v13.3H239
			c6.4,0,11.6,5.2,11.6,11.6v45.3h13.8c5.6,0,10.1-4.1,10.1-9.2V504l2.8-1.1C278,502.6,278.3,501.8,278,501.2z M269.6,479.3
			l-0.8,2.6c-0.4,1.1-1.5,1.7-2.6,1.3l-8.7-2.9c-1.1-0.4-1.7-1.5-1.3-2.6l0.8-2.6c0.4-1.1,1.5-1.7,2.6-1.3l8.7,2.9
			C269.4,477,270,478.2,269.6,479.3z M278,501.2l-3.5-7.2v-39.6c0-5.1-4.5-9.2-10.1-9.2h-26c-5.6,0-10.1,4.1-10.1,9.2v13.3H239
			c6.4,0,11.6,5.2,11.6,11.6v45.3h13.8c5.6,0,10.1-4.1,10.1-9.2V504l2.8-1.1C278,502.6,278.3,501.8,278,501.2z M269.6,479.3
			l-0.8,2.6c-0.4,1.1-1.5,1.7-2.6,1.3l-8.7-2.9c-1.1-0.4-1.7-1.5-1.3-2.6l0.8-2.6c0.4-1.1,1.5-1.7,2.6-1.3l8.7,2.9
			C269.4,477,270,478.2,269.6,479.3z M197.5,445.2h-26c-5.6,0-10.1,4.1-10.1,9.2V494l-3.5,7.2c-0.3,0.6,0,1.4,0.7,1.7l2.8,1.1v11.3
			c0,5.1,4.5,9.2,10.1,9.2h18.2v-45.3c0-6.4,5.2-11.6,11.6-11.6h6.3v-13.3C207.6,449.3,203,445.2,197.5,445.2z M178.4,480.3
			l-8.7,2.9c-1.1,0.4-2.3-0.2-2.6-1.3l-0.8-2.6c-0.4-1.1,0.2-2.3,1.3-2.6l8.7-2.9c1.1-0.4,2.3,0.2,2.6,1.3l0.8,2.6
			C180.1,478.7,179.5,479.9,178.4,480.3z M197.5,445.2h-26c-5.6,0-10.1,4.1-10.1,9.2V494l-3.5,7.2c-0.3,0.6,0,1.4,0.7,1.7l2.8,1.1
			v11.3c0,5.1,4.5,9.2,10.1,9.2h18.2v-45.3c0-6.4,5.2-11.6,11.6-11.6h6.3v-13.3C207.6,449.3,203,445.2,197.5,445.2z M178.4,480.3
			l-8.7,2.9c-1.1,0.4-2.3-0.2-2.6-1.3l-0.8-2.6c-0.4-1.1,0.2-2.3,1.3-2.6l8.7-2.9c1.1-0.4,2.3,0.2,2.6,1.3l0.8,2.6
			C180.1,478.7,179.5,479.9,178.4,480.3z M278,501.2l-3.5-7.2v-39.6c0-5.1-4.5-9.2-10.1-9.2h-26c-5.6,0-10.1,4.1-10.1,9.2v13.3H239
			c6.4,0,11.6,5.2,11.6,11.6v45.3h13.8c5.6,0,10.1-4.1,10.1-9.2V504l2.8-1.1C278,502.6,278.3,501.8,278,501.2z M269.6,479.3
			l-0.8,2.6c-0.4,1.1-1.5,1.7-2.6,1.3l-8.7-2.9c-1.1-0.4-1.7-1.5-1.3-2.6l0.8-2.6c0.4-1.1,1.5-1.7,2.6-1.3l8.7,2.9
			C269.4,477,270,478.2,269.6,479.3z M278,501.2l-3.5-7.2v-39.6c0-5.1-4.5-9.2-10.1-9.2h-26c-5.6,0-10.1,4.1-10.1,9.2v13.3H239
			c6.4,0,11.6,5.2,11.6,11.6v45.3h13.8c5.6,0,10.1-4.1,10.1-9.2V504l2.8-1.1C278,502.6,278.3,501.8,278,501.2z M269.6,479.3
			l-0.8,2.6c-0.4,1.1-1.5,1.7-2.6,1.3l-8.7-2.9c-1.1-0.4-1.7-1.5-1.3-2.6l0.8-2.6c0.4-1.1,1.5-1.7,2.6-1.3l8.7,2.9
			C269.4,477,270,478.2,269.6,479.3z M197.5,445.2h-26c-5.6,0-10.1,4.1-10.1,9.2V494l-3.5,7.2c-0.3,0.6,0,1.4,0.7,1.7l2.8,1.1v11.3
			c0,5.1,4.5,9.2,10.1,9.2h18.2v-45.3c0-6.4,5.2-11.6,11.6-11.6h6.3v-13.3C207.6,449.3,203,445.2,197.5,445.2z M178.4,480.3
			l-8.7,2.9c-1.1,0.4-2.3-0.2-2.6-1.3l-0.8-2.6c-0.4-1.1,0.2-2.3,1.3-2.6l8.7-2.9c1.1-0.4,2.3,0.2,2.6,1.3l0.8,2.6
			C180.1,478.7,179.5,479.9,178.4,480.3z M197.5,445.2h-26c-5.6,0-10.1,4.1-10.1,9.2V494l-3.5,7.2c-0.3,0.6,0,1.4,0.7,1.7l2.8,1.1
			v11.3c0,5.1,4.5,9.2,10.1,9.2h18.2v-45.3c0-6.4,5.2-11.6,11.6-11.6h6.3v-13.3C207.6,449.3,203,445.2,197.5,445.2z M178.4,480.3
			l-8.7,2.9c-1.1,0.4-2.3-0.2-2.6-1.3l-0.8-2.6c-0.4-1.1,0.2-2.3,1.3-2.6l8.7-2.9c1.1-0.4,2.3,0.2,2.6,1.3l0.8,2.6
			C180.1,478.7,179.5,479.9,178.4,480.3z M278,501.2l-3.5-7.2v-39.6c0-5.1-4.5-9.2-10.1-9.2h-26c-5.6,0-10.1,4.1-10.1,9.2v13.3H239
			c6.4,0,11.6,5.2,11.6,11.6v45.3h13.8c5.6,0,10.1-4.1,10.1-9.2V504l2.8-1.1C278,502.6,278.3,501.8,278,501.2z M269.6,479.3
			l-0.8,2.6c-0.4,1.1-1.5,1.7-2.6,1.3l-8.7-2.9c-1.1-0.4-1.7-1.5-1.3-2.6l0.8-2.6c0.4-1.1,1.5-1.7,2.6-1.3l8.7,2.9
			C269.4,477,270,478.2,269.6,479.3z M278,501.2l-3.5-7.2v-39.6c0-5.1-4.5-9.2-10.1-9.2h-26c-5.6,0-10.1,4.1-10.1,9.2v13.3H239
			c6.4,0,11.6,5.2,11.6,11.6v45.3h13.8c5.6,0,10.1-4.1,10.1-9.2V504l2.8-1.1C278,502.6,278.3,501.8,278,501.2z M269.6,479.3
			l-0.8,2.6c-0.4,1.1-1.5,1.7-2.6,1.3l-8.7-2.9c-1.1-0.4-1.7-1.5-1.3-2.6l0.8-2.6c0.4-1.1,1.5-1.7,2.6-1.3l8.7,2.9
			C269.4,477,270,478.2,269.6,479.3z M197.5,445.2h-26c-5.6,0-10.1,4.1-10.1,9.2V494l-3.5,7.2c-0.3,0.6,0,1.4,0.7,1.7l2.8,1.1v11.3
			c0,5.1,4.5,9.2,10.1,9.2h18.2v-45.3c0-6.4,5.2-11.6,11.6-11.6h6.3v-13.3C207.6,449.3,203,445.2,197.5,445.2z M178.4,480.3
			l-8.7,2.9c-1.1,0.4-2.3-0.2-2.6-1.3l-0.8-2.6c-0.4-1.1,0.2-2.3,1.3-2.6l8.7-2.9c1.1-0.4,2.3,0.2,2.6,1.3l0.8,2.6
			C180.1,478.7,179.5,479.9,178.4,480.3z M278,501.2l-3.5-7.2v-39.6c0-5.1-4.5-9.2-10.1-9.2h-26c-5.6,0-10.1,4.1-10.1,9.2v13.3H239
			c6.4,0,11.6,5.2,11.6,11.6v45.3h13.8c5.6,0,10.1-4.1,10.1-9.2V504l2.8-1.1C278,502.6,278.3,501.8,278,501.2z M269.6,479.3
			l-0.8,2.6c-0.4,1.1-1.5,1.7-2.6,1.3l-8.7-2.9c-1.1-0.4-1.7-1.5-1.3-2.6l0.8-2.6c0.4-1.1,1.5-1.7,2.6-1.3l8.7,2.9
			C269.4,477,270,478.2,269.6,479.3z M197.5,445.2h-26c-5.6,0-10.1,4.1-10.1,9.2V494l-3.5,7.2c-0.3,0.6,0,1.4,0.7,1.7l2.8,1.1v11.3
			c0,5.1,4.5,9.2,10.1,9.2h18.2v-45.3c0-6.4,5.2-11.6,11.6-11.6h6.3v-13.3C207.6,449.3,203,445.2,197.5,445.2z M178.4,480.3
			l-8.7,2.9c-1.1,0.4-2.3-0.2-2.6-1.3l-0.8-2.6c-0.4-1.1,0.2-2.3,1.3-2.6l8.7-2.9c1.1-0.4,2.3,0.2,2.6,1.3l0.8,2.6
			C180.1,478.7,179.5,479.9,178.4,480.3z M197.5,445.2h-26c-5.6,0-10.1,4.1-10.1,9.2V494l-3.5,7.2c-0.3,0.6,0,1.4,0.7,1.7l2.8,1.1
			v11.3c0,5.1,4.5,9.2,10.1,9.2h18.2v-45.3c0-6.4,5.2-11.6,11.6-11.6h6.3v-13.3C207.6,449.3,203,445.2,197.5,445.2z M178.4,480.3
			l-8.7,2.9c-1.1,0.4-2.3-0.2-2.6-1.3l-0.8-2.6c-0.4-1.1,0.2-2.3,1.3-2.6l8.7-2.9c1.1-0.4,2.3,0.2,2.6,1.3l0.8,2.6
			C180.1,478.7,179.5,479.9,178.4,480.3z M278,501.2l-3.5-7.2v-39.6c0-5.1-4.5-9.2-10.1-9.2h-26c-5.6,0-10.1,4.1-10.1,9.2v13.3H239
			c6.4,0,11.6,5.2,11.6,11.6v45.3h13.8c5.6,0,10.1-4.1,10.1-9.2V504l2.8-1.1C278,502.6,278.3,501.8,278,501.2z M269.6,479.3
			l-0.8,2.6c-0.4,1.1-1.5,1.7-2.6,1.3l-8.7-2.9c-1.1-0.4-1.7-1.5-1.3-2.6l0.8-2.6c0.4-1.1,1.5-1.7,2.6-1.3l8.7,2.9
			C269.4,477,270,478.2,269.6,479.3z M278,501.2l-3.5-7.2v-39.6c0-5.1-4.5-9.2-10.1-9.2h-26c-5.6,0-10.1,4.1-10.1,9.2v13.3H239
			c6.4,0,11.6,5.2,11.6,11.6v45.3h13.8c5.6,0,10.1-4.1,10.1-9.2V504l2.8-1.1C278,502.6,278.3,501.8,278,501.2z M269.6,479.3
			l-0.8,2.6c-0.4,1.1-1.5,1.7-2.6,1.3l-8.7-2.9c-1.1-0.4-1.7-1.5-1.3-2.6l0.8-2.6c0.4-1.1,1.5-1.7,2.6-1.3l8.7,2.9
			C269.4,477,270,478.2,269.6,479.3z M197.5,445.2h-26c-5.6,0-10.1,4.1-10.1,9.2V494l-3.5,7.2c-0.3,0.6,0,1.4,0.7,1.7l2.8,1.1v11.3
			c0,5.1,4.5,9.2,10.1,9.2h18.2v-45.3c0-6.4,5.2-11.6,11.6-11.6h6.3v-13.3C207.6,449.3,203,445.2,197.5,445.2z M178.4,480.3
			l-8.7,2.9c-1.1,0.4-2.3-0.2-2.6-1.3l-0.8-2.6c-0.4-1.1,0.2-2.3,1.3-2.6l8.7-2.9c1.1-0.4,2.3,0.2,2.6,1.3l0.8,2.6
			C180.1,478.7,179.5,479.9,178.4,480.3z M197.5,445.2h-26c-5.6,0-10.1,4.1-10.1,9.2V494l-3.5,7.2c-0.3,0.6,0,1.4,0.7,1.7l2.8,1.1
			v11.3c0,5.1,4.5,9.2,10.1,9.2h18.2v-45.3c0-6.4,5.2-11.6,11.6-11.6h6.3v-13.3C207.6,449.3,203,445.2,197.5,445.2z M178.4,480.3
			l-8.7,2.9c-1.1,0.4-2.3-0.2-2.6-1.3l-0.8-2.6c-0.4-1.1,0.2-2.3,1.3-2.6l8.7-2.9c1.1-0.4,2.3,0.2,2.6,1.3l0.8,2.6
			C180.1,478.7,179.5,479.9,178.4,480.3z M278,501.2l-3.5-7.2v-39.6c0-5.1-4.5-9.2-10.1-9.2h-26c-5.6,0-10.1,4.1-10.1,9.2v13.3H239
			c6.4,0,11.6,5.2,11.6,11.6v45.3h13.8c5.6,0,10.1-4.1,10.1-9.2V504l2.8-1.1C278,502.6,278.3,501.8,278,501.2z M269.6,479.3
			l-0.8,2.6c-0.4,1.1-1.5,1.7-2.6,1.3l-8.7-2.9c-1.1-0.4-1.7-1.5-1.3-2.6l0.8-2.6c0.4-1.1,1.5-1.7,2.6-1.3l8.7,2.9
			C269.4,477,270,478.2,269.6,479.3z M278,501.2l-3.5-7.2v-39.6c0-5.1-4.5-9.2-10.1-9.2h-26c-5.6,0-10.1,4.1-10.1,9.2v13.3H239
			c6.4,0,11.6,5.2,11.6,11.6v45.3h13.8c5.6,0,10.1-4.1,10.1-9.2V504l2.8-1.1C278,502.6,278.3,501.8,278,501.2z M269.6,479.3
			l-0.8,2.6c-0.4,1.1-1.5,1.7-2.6,1.3l-8.7-2.9c-1.1-0.4-1.7-1.5-1.3-2.6l0.8-2.6c0.4-1.1,1.5-1.7,2.6-1.3l8.7,2.9
			C269.4,477,270,478.2,269.6,479.3z M197.5,445.2h-26c-5.6,0-10.1,4.1-10.1,9.2V494l-3.5,7.2c-0.3,0.6,0,1.4,0.7,1.7l2.8,1.1v11.3
			c0,5.1,4.5,9.2,10.1,9.2h18.2v-45.3c0-6.4,5.2-11.6,11.6-11.6h6.3v-13.3C207.6,449.3,203,445.2,197.5,445.2z M178.4,480.3
			l-8.7,2.9c-1.1,0.4-2.3-0.2-2.6-1.3l-0.8-2.6c-0.4-1.1,0.2-2.3,1.3-2.6l8.7-2.9c1.1-0.4,2.3,0.2,2.6,1.3l0.8,2.6
			C180.1,478.7,179.5,479.9,178.4,480.3z M197.5,445.2h-26c-5.6,0-10.1,4.1-10.1,9.2V494l-3.5,7.2c-0.3,0.6,0,1.4,0.7,1.7l2.8,1.1
			v11.3c0,5.1,4.5,9.2,10.1,9.2h18.2v-45.3c0-6.4,5.2-11.6,11.6-11.6h6.3v-13.3C207.6,449.3,203,445.2,197.5,445.2z M178.4,480.3
			l-8.7,2.9c-1.1,0.4-2.3-0.2-2.6-1.3l-0.8-2.6c-0.4-1.1,0.2-2.3,1.3-2.6l8.7-2.9c1.1-0.4,2.3,0.2,2.6,1.3l0.8,2.6
			C180.1,478.7,179.5,479.9,178.4,480.3z M278,501.2l-3.5-7.2v-39.6c0-5.1-4.5-9.2-10.1-9.2h-26c-5.6,0-10.1,4.1-10.1,9.2v13.3H239
			c6.4,0,11.6,5.2,11.6,11.6v45.3h13.8c5.6,0,10.1-4.1,10.1-9.2V504l2.8-1.1C278,502.6,278.3,501.8,278,501.2z M269.6,479.3
			l-0.8,2.6c-0.4,1.1-1.5,1.7-2.6,1.3l-8.7-2.9c-1.1-0.4-1.7-1.5-1.3-2.6l0.8-2.6c0.4-1.1,1.5-1.7,2.6-1.3l8.7,2.9
			C269.4,477,270,478.2,269.6,479.3z M278,501.2l-3.5-7.2v-39.6c0-5.1-4.5-9.2-10.1-9.2h-26c-5.6,0-10.1,4.1-10.1,9.2v13.3H239
			c6.4,0,11.6,5.2,11.6,11.6v45.3h13.8c5.6,0,10.1-4.1,10.1-9.2V504l2.8-1.1C278,502.6,278.3,501.8,278,501.2z M269.6,479.3
			l-0.8,2.6c-0.4,1.1-1.5,1.7-2.6,1.3l-8.7-2.9c-1.1-0.4-1.7-1.5-1.3-2.6l0.8-2.6c0.4-1.1,1.5-1.7,2.6-1.3l8.7,2.9
			C269.4,477,270,478.2,269.6,479.3z M197.5,445.2h-26c-5.6,0-10.1,4.1-10.1,9.2V494l-3.5,7.2c-0.3,0.6,0,1.4,0.7,1.7l2.8,1.1v11.3
			c0,5.1,4.5,9.2,10.1,9.2h18.2v-45.3c0-6.4,5.2-11.6,11.6-11.6h6.3v-13.3C207.6,449.3,203,445.2,197.5,445.2z M178.4,480.3
			l-8.7,2.9c-1.1,0.4-2.3-0.2-2.6-1.3l-0.8-2.6c-0.4-1.1,0.2-2.3,1.3-2.6l8.7-2.9c1.1-0.4,2.3,0.2,2.6,1.3l0.8,2.6
			C180.1,478.7,179.5,479.9,178.4,480.3z M197.5,445.2h-26c-5.6,0-10.1,4.1-10.1,9.2V494l-3.5,7.2c-0.3,0.6,0,1.4,0.7,1.7l2.8,1.1
			v11.3c0,5.1,4.5,9.2,10.1,9.2h18.2v-45.3c0-6.4,5.2-11.6,11.6-11.6h6.3v-13.3C207.6,449.3,203,445.2,197.5,445.2z M178.4,480.3
			l-8.7,2.9c-1.1,0.4-2.3-0.2-2.6-1.3l-0.8-2.6c-0.4-1.1,0.2-2.3,1.3-2.6l8.7-2.9c1.1-0.4,2.3,0.2,2.6,1.3l0.8,2.6
			C180.1,478.7,179.5,479.9,178.4,480.3z M278,501.2l-3.5-7.2v-39.6c0-5.1-4.5-9.2-10.1-9.2h-26c-5.6,0-10.1,4.1-10.1,9.2v13.3H239
			c6.4,0,11.6,5.2,11.6,11.6v45.3h13.8c5.6,0,10.1-4.1,10.1-9.2V504l2.8-1.1C278,502.6,278.3,501.8,278,501.2z M269.6,479.3
			l-0.8,2.6c-0.4,1.1-1.5,1.7-2.6,1.3l-8.7-2.9c-1.1-0.4-1.7-1.5-1.3-2.6l0.8-2.6c0.4-1.1,1.5-1.7,2.6-1.3l8.7,2.9
			C269.4,477,270,478.2,269.6,479.3z M278,501.2l-3.5-7.2v-39.6c0-5.1-4.5-9.2-10.1-9.2h-26c-5.6,0-10.1,4.1-10.1,9.2v13.3H239
			c6.4,0,11.6,5.2,11.6,11.6v45.3h13.8c5.6,0,10.1-4.1,10.1-9.2V504l2.8-1.1C278,502.6,278.3,501.8,278,501.2z M269.6,479.3
			l-0.8,2.6c-0.4,1.1-1.5,1.7-2.6,1.3l-8.7-2.9c-1.1-0.4-1.7-1.5-1.3-2.6l0.8-2.6c0.4-1.1,1.5-1.7,2.6-1.3l8.7,2.9
			C269.4,477,270,478.2,269.6,479.3z M197.5,445.2h-26c-5.6,0-10.1,4.1-10.1,9.2V494l-3.5,7.2c-0.3,0.6,0,1.4,0.7,1.7l2.8,1.1v11.3
			c0,5.1,4.5,9.2,10.1,9.2h18.2v-45.3c0-6.4,5.2-11.6,11.6-11.6h6.3v-13.3C207.6,449.3,203,445.2,197.5,445.2z M178.4,480.3
			l-8.7,2.9c-1.1,0.4-2.3-0.2-2.6-1.3l-0.8-2.6c-0.4-1.1,0.2-2.3,1.3-2.6l8.7-2.9c1.1-0.4,2.3,0.2,2.6,1.3l0.8,2.6
			C180.1,478.7,179.5,479.9,178.4,480.3z M197.5,445.2h-26c-5.6,0-10.1,4.1-10.1,9.2V494l-3.5,7.2c-0.3,0.6,0,1.4,0.7,1.7l2.8,1.1
			v11.3c0,5.1,4.5,9.2,10.1,9.2h18.2v-45.3c0-6.4,5.2-11.6,11.6-11.6h6.3v-13.3C207.6,449.3,203,445.2,197.5,445.2z M178.4,480.3
			l-8.7,2.9c-1.1,0.4-2.3-0.2-2.6-1.3l-0.8-2.6c-0.4-1.1,0.2-2.3,1.3-2.6l8.7-2.9c1.1-0.4,2.3,0.2,2.6,1.3l0.8,2.6
			C180.1,478.7,179.5,479.9,178.4,480.3z M278,501.2l-3.5-7.2v-39.6c0-5.1-4.5-9.2-10.1-9.2h-26c-5.6,0-10.1,4.1-10.1,9.2v13.3H239
			c6.4,0,11.6,5.2,11.6,11.6v45.3h13.8c5.6,0,10.1-4.1,10.1-9.2V504l2.8-1.1C278,502.6,278.3,501.8,278,501.2z M269.6,479.3
			l-0.8,2.6c-0.4,1.1-1.5,1.7-2.6,1.3l-8.7-2.9c-1.1-0.4-1.7-1.5-1.3-2.6l0.8-2.6c0.4-1.1,1.5-1.7,2.6-1.3l8.7,2.9
			C269.4,477,270,478.2,269.6,479.3z M197.5,445.2h-26c-5.6,0-10.1,4.1-10.1,9.2V494l-3.5,7.2c-0.3,0.6,0,1.4,0.7,1.7l2.8,1.1v11.3
			c0,5.1,4.5,9.2,10.1,9.2h18.2v-45.3c0-6.4,5.2-11.6,11.6-11.6h6.3v-13.3C207.6,449.3,203,445.2,197.5,445.2z M178.4,480.3
			l-8.7,2.9c-1.1,0.4-2.3-0.2-2.6-1.3l-0.8-2.6c-0.4-1.1,0.2-2.3,1.3-2.6l8.7-2.9c1.1-0.4,2.3,0.2,2.6,1.3l0.8,2.6
			C180.1,478.7,179.5,479.9,178.4,480.3z M197.5,445.2h-26c-5.6,0-10.1,4.1-10.1,9.2V494l-3.5,7.2c-0.3,0.6,0,1.4,0.7,1.7l2.8,1.1
			v11.3c0,5.1,4.5,9.2,10.1,9.2h18.2v-45.3c0-6.4,5.2-11.6,11.6-11.6h6.3v-13.3C207.6,449.3,203,445.2,197.5,445.2z M178.4,480.3
			l-8.7,2.9c-1.1,0.4-2.3-0.2-2.6-1.3l-0.8-2.6c-0.4-1.1,0.2-2.3,1.3-2.6l8.7-2.9c1.1-0.4,2.3,0.2,2.6,1.3l0.8,2.6
			C180.1,478.7,179.5,479.9,178.4,480.3z M278,501.2l-3.5-7.2v-39.6c0-5.1-4.5-9.2-10.1-9.2h-26c-5.6,0-10.1,4.1-10.1,9.2v13.3H239
			c6.4,0,11.6,5.2,11.6,11.6v45.3h13.8c5.6,0,10.1-4.1,10.1-9.2V504l2.8-1.1C278,502.6,278.3,501.8,278,501.2z M269.6,479.3
			l-0.8,2.6c-0.4,1.1-1.5,1.7-2.6,1.3l-8.7-2.9c-1.1-0.4-1.7-1.5-1.3-2.6l0.8-2.6c0.4-1.1,1.5-1.7,2.6-1.3l8.7,2.9
			C269.4,477,270,478.2,269.6,479.3z M197.5,445.2h-26c-5.6,0-10.1,4.1-10.1,9.2V494l-3.5,7.2c-0.3,0.6,0,1.4,0.7,1.7l2.8,1.1v11.3
			c0,5.1,4.5,9.2,10.1,9.2h18.2v-45.3c0-6.4,5.2-11.6,11.6-11.6h6.3v-13.3C207.6,449.3,203,445.2,197.5,445.2z M178.4,480.3
			l-8.7,2.9c-1.1,0.4-2.3-0.2-2.6-1.3l-0.8-2.6c-0.4-1.1,0.2-2.3,1.3-2.6l8.7-2.9c1.1-0.4,2.3,0.2,2.6,1.3l0.8,2.6
			C180.1,478.7,179.5,479.9,178.4,480.3z M278,501.2l-3.5-7.2v-39.6c0-5.1-4.5-9.2-10.1-9.2h-26c-5.6,0-10.1,4.1-10.1,9.2v13.3H239
			c6.4,0,11.6,5.2,11.6,11.6v45.3h13.8c5.6,0,10.1-4.1,10.1-9.2V504l2.8-1.1C278,502.6,278.3,501.8,278,501.2z M269.6,479.3
			l-0.8,2.6c-0.4,1.1-1.5,1.7-2.6,1.3l-8.7-2.9c-1.1-0.4-1.7-1.5-1.3-2.6l0.8-2.6c0.4-1.1,1.5-1.7,2.6-1.3l8.7,2.9
			C269.4,477,270,478.2,269.6,479.3z M197.5,445.2h-26c-5.6,0-10.1,4.1-10.1,9.2V494l-3.5,7.2c-0.3,0.6,0,1.4,0.7,1.7l2.8,1.1v11.3
			c0,5.1,4.5,9.2,10.1,9.2h18.2v-45.3c0-6.4,5.2-11.6,11.6-11.6h6.3v-13.3C207.6,449.3,203,445.2,197.5,445.2z M178.4,480.3
			l-8.7,2.9c-1.1,0.4-2.3-0.2-2.6-1.3l-0.8-2.6c-0.4-1.1,0.2-2.3,1.3-2.6l8.7-2.9c1.1-0.4,2.3,0.2,2.6,1.3l0.8,2.6
			C180.1,478.7,179.5,479.9,178.4,480.3z"/>
		<path class="st1" d="M278,501.2l-3.5-7.2v-39.6c0-5.1-4.5-9.2-10.1-9.2h-26c-5.6,0-10.1,4.1-10.1,9.2v13.3H239
			c6.4,0,11.6,5.2,11.6,11.6v45.3h13.8c5.6,0,10.1-4.1,10.1-9.2V504l2.8-1.1C278,502.6,278.3,501.8,278,501.2z M269.6,479.3
			l-0.8,2.6c-0.4,1.1-1.5,1.7-2.6,1.3l-8.7-2.9c-1.1-0.4-1.7-1.5-1.3-2.6l0.8-2.6c0.4-1.1,1.5-1.7,2.6-1.3l8.7,2.9
			C269.4,477,270,478.2,269.6,479.3z"/>
		<path class="st1" d="M278,501.2l-3.5-7.2v-39.6c0-5.1-4.5-9.2-10.1-9.2h-26c-5.6,0-10.1,4.1-10.1,9.2v13.3H239
			c6.4,0,11.6,5.2,11.6,11.6v45.3h13.8c5.6,0,10.1-4.1,10.1-9.2V504l2.8-1.1C278,502.6,278.3,501.8,278,501.2z M269.6,479.3
			l-0.8,2.6c-0.4,1.1-1.5,1.7-2.6,1.3l-8.7-2.9c-1.1-0.4-1.7-1.5-1.3-2.6l0.8-2.6c0.4-1.1,1.5-1.7,2.6-1.3l8.7,2.9
			C269.4,477,270,478.2,269.6,479.3z"/>
		<path class="st1" d="M197.5,445.2h-26c-5.6,0-10.1,4.1-10.1,9.2V494l-3.5,7.2c-0.3,0.6,0,1.4,0.7,1.7l2.8,1.1v11.3
			c0,5.1,4.5,9.2,10.1,9.2h18.2v-45.3c0-6.4,5.2-11.6,11.6-11.6h6.3v-13.3C207.6,449.3,203,445.2,197.5,445.2z M178.4,480.3
			l-8.7,2.9c-1.1,0.4-2.3-0.2-2.6-1.3l-0.8-2.6c-0.4-1.1,0.2-2.3,1.3-2.6l8.7-2.9c1.1-0.4,2.3,0.2,2.6,1.3l0.8,2.6
			C180.1,478.7,179.5,479.9,178.4,480.3z"/>
		<path class="st1" d="M197.5,445.2h-26c-5.6,0-10.1,4.1-10.1,9.2V494l-3.5,7.2c-0.3,0.6,0,1.4,0.7,1.7l2.8,1.1v11.3
			c0,5.1,4.5,9.2,10.1,9.2h18.2v-45.3c0-6.4,5.2-11.6,11.6-11.6h6.3v-13.3C207.6,449.3,203,445.2,197.5,445.2z M178.4,480.3
			l-8.7,2.9c-1.1,0.4-2.3-0.2-2.6-1.3l-0.8-2.6c-0.4-1.1,0.2-2.3,1.3-2.6l8.7-2.9c1.1-0.4,2.3,0.2,2.6,1.3l0.8,2.6
			C180.1,478.7,179.5,479.9,178.4,480.3z"/>
		<path class="st1" d="M239,474.4h-37.8c-2.7,0-4.9,2.2-4.9,4.9v70.6c0,2.7,2.2,4.9,4.9,4.9H239c2.7,0,4.9-2.2,4.9-4.9v-70.6
			C243.9,476.6,241.7,474.4,239,474.4z M199.9,511l0.7-2.1c0.4-1.2,1.7-1.9,2.9-1.5l4.1,1.3l6.9,2.3l0.3,0.1
			c1.2,0.4,1.9,1.7,1.5,2.9l-0.7,2.1c-0.2,0.6-0.6,1.1-1.2,1.3v0c-0.5,0.3-1.1,0.3-1.7,0.1l-5.1-1.7l-6.2-2.1
			C200.1,513.5,199.5,512.2,199.9,511z M229.4,545c0,1.3-1,2.3-2.3,2.3h-14.3c-1.3,0-2.3-1-2.3-2.3v-2.2c0-1.3,1-2.3,2.3-2.3H227
			c1.3,0,2.3,1,2.3,2.3V545z M238.9,513.9l-10.3,3.4l-0.9,0.3c-1.2,0.4-2.5-0.3-2.9-1.5L224,514c-0.4-1.2,0.3-2.5,1.5-2.9l2.8-0.9
			l8.4-2.8c1.2-0.4,2.5,0.3,2.9,1.5l0.7,2.1C240.7,512.2,240.1,513.5,238.9,513.9z"/>
	</g>
</g>
<g>
</g>
<g>
</g>
<g>
</g>
<g>
</g>
<g>
</g>
<g>
</g>
</svg>
